<?xml version="1.0" encoding="utf-8"?>
<!-- Generator: Adobe Illustrator 19.2.0, SVG Export Plug-In . SVG Version: 6.00 Build 0)  -->
<svg version="1.1" id="Capa_1" xmlns="http://www.w3.org/2000/svg" xmlns:xlink="http://www.w3.org/1999/xlink" x="0px" y="0px"
	 viewBox="0 0 483.1 483.1" style="enable-background:new 0 0 483.1 483.1;" xml:space="preserve">
<style type="text/css">
	.st0{fill:#FFFFFF;}
</style>
<g>
	<g>
		<path class="st0" d="M332.7,315.3c30.9-33.4,50.1-78.2,50.1-127.5C382.9,84.4,298.7,0,195,0S7.2,84.4,7.2,187.8
			S91.3,375.7,195,375.7c42.2,0,81-13.9,112.5-37.4L447.2,478c3.4,3.4,7.6,5.1,11.9,5.1s8.8-1.7,11.9-5.1c6.5-6.5,6.5-17.3,0-24.1
			L332.7,315.3z M41.2,187.8C41.2,103.1,110,34,195,34c84.7,0,153.9,68.8,153.9,153.9S280,341.7,195,341.7S41.2,272.6,41.2,187.8z"
			/>
	</g>
</g>
</svg>
